<mxfile host="Electron" modified="2024-05-15T03:20:20.009Z" agent="Mozilla/5.0 (Windows NT 10.0; Win64; x64) AppleWebKit/537.36 (KHTML, like Gecko) draw.io/24.2.5 Chrome/120.0.6099.109 Electron/28.1.0 Safari/537.36" etag="6xM-RfRAeGv996kNUml5" version="24.2.5" type="device">
  <diagram name="Page-1" id="scVQ3xpGRkD49u2WcOP4">
    <mxGraphModel dx="880" dy="532" grid="1" gridSize="10" guides="1" tooltips="1" connect="1" arrows="1" fold="1" page="1" pageScale="1" pageWidth="850" pageHeight="1100" math="0" shadow="0">
      <root>
        <mxCell id="0" />
        <mxCell id="1" parent="0" />
        <mxCell id="9VjqyVR7KMCP7h3FN7Lm-1" value="&lt;h2&gt;INDEX&lt;/h2&gt;" style="rounded=0;whiteSpace=wrap;html=1;fontSize=14;labelPosition=center;verticalLabelPosition=top;align=center;verticalAlign=bottom;fillColor=#e1d5e7;strokeColor=#9673a6;" vertex="1" parent="1">
          <mxGeometry x="160" y="80" width="640" height="290" as="geometry" />
        </mxCell>
        <mxCell id="9VjqyVR7KMCP7h3FN7Lm-2" value="&lt;h2 style=&quot;font-size: 14px;&quot;&gt;HEADER&lt;/h2&gt;" style="rounded=1;whiteSpace=wrap;html=1;verticalAlign=top;labelPosition=center;verticalLabelPosition=bottom;align=center;fillColor=#dae8fc;strokeColor=#6c8ebf;" vertex="1" parent="1">
          <mxGeometry x="200" y="120" width="160" height="200" as="geometry" />
        </mxCell>
        <mxCell id="9VjqyVR7KMCP7h3FN7Lm-5" value="&lt;h2 style=&quot;font-size: 14px;&quot;&gt;QR-SCANNER&lt;/h2&gt;" style="rounded=1;whiteSpace=wrap;html=1;align=center;labelPosition=center;verticalLabelPosition=middle;verticalAlign=middle;fontSize=14;fillColor=#dae8fc;strokeColor=#6c8ebf;" vertex="1" parent="1">
          <mxGeometry x="400" y="120" width="160" height="200" as="geometry" />
        </mxCell>
        <mxCell id="9VjqyVR7KMCP7h3FN7Lm-6" value="&lt;h2 style=&quot;font-size: 14px;&quot;&gt;ATTENDANCE&lt;/h2&gt;" style="rounded=1;whiteSpace=wrap;html=1;verticalAlign=top;labelPosition=center;verticalLabelPosition=bottom;align=center;fontSize=14;fillColor=#dae8fc;strokeColor=#6c8ebf;" vertex="1" parent="1">
          <mxGeometry x="600" y="120" width="160" height="200" as="geometry" />
        </mxCell>
        <mxCell id="9VjqyVR7KMCP7h3FN7Lm-7" value="&lt;h3 style=&quot;&quot;&gt;SCRIPTS&lt;/h3&gt;" style="rounded=1;whiteSpace=wrap;html=1;fillColor=#f5f5f5;fontColor=#333333;strokeColor=#666666;" vertex="1" parent="1">
          <mxGeometry x="220" y="190" width="120" height="60" as="geometry" />
        </mxCell>
        <mxCell id="9VjqyVR7KMCP7h3FN7Lm-8" value="&lt;h3&gt;CONN&lt;/h3&gt;" style="rounded=1;whiteSpace=wrap;html=1;fillColor=#f5f5f5;fontColor=#333333;strokeColor=#666666;" vertex="1" parent="1">
          <mxGeometry x="620" y="150" width="120" height="60" as="geometry" />
        </mxCell>
        <mxCell id="9VjqyVR7KMCP7h3FN7Lm-9" value="&lt;h3&gt;TIMEZONE&lt;/h3&gt;" style="rounded=1;whiteSpace=wrap;html=1;fillColor=#f5f5f5;fontColor=#333333;strokeColor=#666666;" vertex="1" parent="1">
          <mxGeometry x="620" y="230" width="120" height="60" as="geometry" />
        </mxCell>
      </root>
    </mxGraphModel>
  </diagram>
</mxfile>
